<svg xmlns="http://www.w3.org/2000/svg" viewBox="0 0 57.04 40.55"><defs><style>.cls-1{fill:none;stroke:#ece94c;stroke-miterlimit:10;stroke-width:2px;}</style></defs><g id="Layer_2" data-name="Layer 2"><g id="Layer_1-2" data-name="Layer 1"><path class="cls-1" d="M49.46,8.69s-11.28,7.68-17.91,7.68-12-3.44-12-7.68a5.08,5.08,0,0,1,.27-1.64c1.17-3.46,6-6,11.74-6C38.18,1,49.46,8.69,49.46,8.69Z"/><path class="cls-1" d="M17.46,40.16l2.71-6.51s10.57,1.09,13.63-.14c4.75-1.91,20.52-11.8,20.52-11.8a53.52,53.52,0,0,0-6.81-.82c-4,0-15.17,5.15-15.17,5.15S19,21.94,14.86,22.52c-2.65.38-6,2.85-7.72,4.62-2.52,2.58-6.2,13-6.2,13"/><path class="cls-1" d="M8.8,12.17S19.46,6.87,31.41,8"/></g></g></svg>